<svg width="400" height="380" viewBox="0 0 400 380" fill="none" xmlns="http://www.w3.org/2000/svg">
<path d="M287.774 62.9752H242V68.1322H287.774V62.9752Z" fill="#E0E0E0"/>
<path d="M246.161 63.5482H242V71.5703H246.161V63.5482Z" fill="#E0E0E0"/>
<path d="M287.775 64.1212H283.613V71.5702H287.775V64.1212Z" fill="#E0E0E0"/>
<path d="M263.653 20L257.986 20.0338L258.199 63.2791L263.865 63.2454L263.653 20Z" fill="#EBEBEB"/>
<path d="M272.509 28.0527L263.705 28.1058L263.875 63.1545L272.679 63.1014L272.509 28.0527Z" fill="#F5F5F5"/>
<path d="M272.447 34.8117C269.52 35.0423 266.583 35.0423 263.656 34.8117C266.583 34.5912 269.52 34.5912 272.447 34.8117Z" fill="#E0E0E0"/>
<path d="M272.447 33.3413C269.52 33.5718 266.583 33.5718 263.656 33.3413C266.583 33.1208 269.52 33.1208 272.447 33.3413Z" fill="#E0E0E0"/>
<path d="M272.447 57.8335C269.52 58.064 266.583 58.064 263.656 57.8335C266.583 57.613 269.52 57.613 272.447 57.8335Z" fill="#E0E0E0"/>
<path d="M272.447 56.363C269.52 56.5935 266.583 56.5935 263.656 56.363C266.583 56.1425 269.52 56.1425 272.447 56.363Z" fill="#E0E0E0"/>
<path d="M268.185 53.1507C268.097 53.1507 268.029 49.6141 268.029 45.2556C268.029 40.8971 268.097 37.3605 268.185 37.3605C268.273 37.3605 268.334 40.8971 268.334 45.2556C268.334 49.6141 268.266 53.1507 268.185 53.1507Z" fill="#E0E0E0"/>
<path d="M282.123 36.6667H272.541V63.1196H282.123V36.6667Z" fill="#EBEBEB"/>
<path d="M261.236 32.3911H260.229V58.12H261.236V32.3911Z" fill="#E0E0E0"/>
<path d="M349.599 60H310.014V123.99H349.599V60Z" fill="#E0E0E0"/>
<path d="M347.618 60H308.033V123.99H347.618V60Z" fill="#F5F5F5"/>
<path d="M342.702 66.9298H312.949V117.06H342.702V66.9298Z" fill="white"/>
<path d="M342.703 117.061C342.703 117.061 342.703 116.97 342.703 116.812C342.703 116.653 342.703 116.412 342.703 116.103C342.703 115.469 342.703 114.549 342.703 113.35C342.703 110.953 342.703 107.446 342.703 103.027C342.703 94.1895 342.703 81.672 342.656 66.9299L342.757 67.043H312.95L313.058 66.9223C313.058 85.8344 313.058 103.269 313.058 117.053L312.971 116.955L334.609 117.008H340.593H342.162H342.71H342.183H340.627H334.663L312.957 117.053H312.869V116.962C312.869 103.178 312.869 85.7439 312.869 66.8318V66.7112H312.95H342.703H342.798V66.8168C342.798 81.589 342.764 94.1292 342.751 103.012C342.751 107.423 342.751 110.915 342.751 113.313C342.751 114.497 342.751 115.409 342.751 116.035C342.751 116.344 342.751 116.57 342.751 116.736L342.703 117.061Z" fill="#E0E0E0"/>
<path d="M347.728 60C347.537 60.4061 347.31 60.79 347.051 61.1462C346.592 61.8324 345.936 62.7599 345.192 63.7703C344.448 64.7808 343.751 65.6706 343.238 66.3116C342.975 66.6705 342.683 67.0012 342.365 67.2994C342.591 66.9104 342.844 66.5422 343.123 66.1985L345.03 63.6195L346.93 61.0406C347.172 60.6725 347.439 60.3247 347.728 60Z" fill="#E0E0E0"/>
<path d="M342.852 116.895C344.329 119.519 346.069 121.948 348.038 124.134L342.852 116.895Z" fill="white"/>
<path d="M348.038 124.134C347.709 123.865 347.407 123.556 347.139 123.214C346.447 122.433 345.793 121.612 345.178 120.755C344.563 119.899 343.988 119.008 343.453 118.086C343.215 117.714 343.014 117.315 342.852 116.895C343.117 117.24 343.361 117.605 343.582 117.988C344.015 118.674 344.63 119.602 345.347 120.605C346.064 121.608 346.746 122.475 347.247 123.101C347.534 123.422 347.799 123.767 348.038 124.134Z" fill="#E0E0E0"/>
<path d="M308.027 123.938L313.214 116.804L308.027 123.938Z" fill="white"/>
<path d="M313.214 116.804C313.254 116.804 312.132 118.478 310.705 120.446C309.859 121.663 308.956 122.828 308 123.938C309.616 121.46 311.347 119.079 313.187 116.804H313.214Z" fill="#E0E0E0"/>
<path d="M308.033 60C308.922 61.0708 309.761 62.1908 310.549 63.3556C311.388 64.4753 312.172 65.6458 312.895 66.862C312.004 65.7862 311.164 64.6585 310.38 63.4838C309.538 62.3738 308.755 61.2106 308.033 60Z" fill="#E0E0E0"/>
<path d="M333.431 77.1099H323.471V108.653H333.431V77.1099Z" fill="#E0E0E0"/>
<path d="M88.6919 25.9028C88.6919 25.9028 88.6428 25.9028 88.5609 25.8602L88.2008 25.702L86.8256 25.0631L81.778 22.629L65.189 14.572L64.6105 14.286H64.7306L48.4745 22.0691L43.5632 24.3693L42.2208 24.9779C42.0679 25.0562 41.909 25.1193 41.7461 25.1665C41.891 25.0702 42.0424 24.9868 42.199 24.917L43.5196 24.2476L48.4308 21.8439L64.6487 14H64.7088H64.7688L65.3472 14.2799L81.9035 22.4342L86.9075 24.9353L88.2608 25.6351L88.61 25.8237C88.64 25.8464 88.6675 25.873 88.6919 25.9028Z" fill="#E0E0E0"/>
<path d="M114.568 23.2496H8V112.235H114.568V23.2496Z" fill="#E0E0E0"/>
<path d="M111.244 27.3876H11.7266V108.578H111.244V27.3876Z" fill="#FAFAFA"/>
<path d="M33.707 62.8589C33.707 62.8589 33.8107 76.4839 34.4328 80.6462L49.7613 79.8369C49.7613 79.8369 48.4189 66.4492 48.9373 62.8589H33.707Z" fill="#E0E0E0"/>
<path d="M41.2598 64.7816H41.4835C41.6969 64.7729 41.9106 64.7851 42.122 64.8182C42.4579 64.8738 42.7849 64.9824 43.0933 65.1407C43.5016 65.3662 43.8624 65.6856 44.152 66.0778C44.5079 66.5548 44.76 67.1171 44.8887 67.7209C45.0085 68.4277 44.9538 69.1576 44.7304 69.8325C44.6162 70.1994 44.4719 70.5539 44.2993 70.8913C44.1162 71.2347 43.9521 71.5904 43.8082 71.9562C43.5026 72.7323 43.2933 73.5512 43.1861 74.3904V74.4451H43.137H41.6254H40.0375H39.9774V74.3843C39.9094 73.5493 39.6562 72.7463 39.2407 72.0475C39.0552 71.6946 38.8533 71.372 38.6951 71.0374C38.497 70.7223 38.3148 70.3953 38.1494 70.0576C37.8695 69.4112 37.7852 68.6809 37.9093 67.9764C37.9983 67.3683 38.201 66.7878 38.5041 66.2725C38.7629 65.8585 39.1024 65.5152 39.4972 65.2685C39.9846 64.9801 40.5191 64.8042 41.0688 64.7512H41.2871C41.2871 64.7512 41.2871 64.7512 41.2325 64.7512H41.0688C40.8606 64.7786 40.6544 64.8234 40.4522 64.8851C40.1295 64.979 39.8194 65.1202 39.53 65.305C39.1438 65.5483 38.8133 65.8878 38.5641 66.2969C38.2822 66.8076 38.0966 67.377 38.0184 67.9704C37.8993 68.653 37.9836 69.3603 38.2585 69.9846C38.4256 70.3172 38.6077 70.6401 38.8042 70.9522C38.9952 71.2747 39.1971 71.6094 39.3826 71.9623C39.8134 72.6771 40.0743 73.502 40.1411 74.3599L40.0811 74.293H41.6691H43.1861L43.1261 74.3539C43.2352 73.504 43.4482 72.6747 43.7591 71.8893C43.9089 71.5204 44.0764 71.1609 44.2611 70.8122C44.4306 70.4823 44.573 70.1361 44.6867 69.7777C44.9077 69.1236 44.9661 68.415 44.8559 67.7269C44.7315 67.1378 44.491 66.5869 44.152 66.1143C43.8705 65.7269 43.5191 65.4096 43.1206 65.1833C42.8186 65.0204 42.4969 64.9077 42.1657 64.8486C41.9579 64.8131 41.7483 64.7928 41.5381 64.7877H41.3689C41.2816 64.7877 41.2598 64.7877 41.2598 64.7816Z" fill="white"/>
<path d="M42.045 74.2809C42.0439 74.2626 42.0439 74.2444 42.045 74.2261V74.0679C42.045 73.9279 41.9959 73.721 41.9631 73.4594C41.8922 72.9239 41.7885 72.1571 41.723 71.2017C41.723 70.9644 41.6903 70.7149 41.6848 70.4532C41.6711 70.1796 41.6711 69.9053 41.6848 69.6317C41.6907 69.3381 41.7482 69.0487 41.854 68.7798C41.9719 68.4893 42.1817 68.2575 42.4433 68.1286C42.5827 68.0634 42.7361 68.0453 42.8846 68.0767C43.0331 68.1081 43.17 68.1875 43.2782 68.3051C43.3359 68.3646 43.3813 68.4373 43.4114 68.5181C43.4416 68.599 43.4557 68.6862 43.4529 68.7737C43.4497 68.95 43.3962 69.1205 43.3001 69.2605C43.2014 69.4027 43.0743 69.5173 42.929 69.5952C42.7848 69.6708 42.6326 69.726 42.4761 69.7595C41.8368 69.9053 41.1801 69.93 40.5334 69.8325C40.3735 69.8082 40.2173 69.7591 40.0696 69.6865C39.9255 69.6142 39.7956 69.5108 39.6876 69.3822C39.5769 69.2535 39.4995 69.0936 39.4639 68.9197C39.4295 68.7494 39.4488 68.571 39.5184 68.4147C39.5816 68.2571 39.697 68.1328 39.8404 68.0678C39.9085 68.0352 39.9818 68.0183 40.0559 68.0183C40.1301 68.0183 40.2034 68.0352 40.2715 68.0678C40.4032 68.1344 40.5164 68.2396 40.5989 68.3721C40.6758 68.5021 40.7312 68.6463 40.7626 68.798C40.8089 69.0874 40.8344 69.3804 40.839 69.6743L40.9154 71.2382C40.9536 72.1936 40.9918 72.9665 41.0136 73.5081C41.0136 73.7697 41.0136 73.9766 41.0136 74.1166V74.3296C41.0148 74.3113 41.0148 74.293 41.0136 74.2748C41.0136 74.2383 41.0136 74.1835 41.0136 74.1166C41.0136 74.0496 41.0136 73.7636 40.9809 73.5081C40.9809 72.9665 40.9099 72.1936 40.8608 71.2382C40.8608 70.7636 40.8117 70.2403 40.7844 69.6743C40.7809 69.3841 40.7535 69.0948 40.7026 68.8102C40.6759 68.6645 40.624 68.526 40.5498 68.4025C40.4688 68.2785 40.3621 68.1783 40.2387 68.1104C40.1758 68.0804 40.108 68.065 40.0396 68.065C39.9711 68.065 39.9034 68.0804 39.8404 68.1104C39.7076 68.1721 39.6005 68.2872 39.5403 68.4329C39.4774 68.5808 39.4602 68.7476 39.4912 68.9076C39.5279 69.0695 39.6012 69.2182 39.704 69.3396C39.9255 69.5832 40.2135 69.7374 40.5225 69.7778C40.8426 69.8246 41.1658 69.8409 41.4884 69.8265C41.8111 69.817 42.1324 69.7763 42.4488 69.7047C42.602 69.6721 42.7506 69.6168 42.8908 69.5404C43.029 69.4664 43.1503 69.3582 43.2455 69.224C43.3356 69.0924 43.3871 68.933 43.3928 68.7676C43.3925 68.6871 43.3779 68.6074 43.3498 68.5333C43.3217 68.4591 43.2807 68.3919 43.2291 68.3356C43.1264 68.2264 42.9979 68.1523 42.8586 68.1221C42.7193 68.0919 42.5752 68.1068 42.4433 68.1652C42.201 68.2871 42.007 68.5035 41.8976 68.7737C41.7939 69.0391 41.7365 69.3241 41.7285 69.6135C41.7285 69.8934 41.7285 70.1611 41.7285 70.4228C41.7285 70.6845 41.7285 70.934 41.7667 71.1774C41.8322 72.1328 41.9304 72.8995 41.9904 73.4289C42.0231 73.6967 42.0504 73.8975 42.0668 74.0375V74.1957C42.0626 74.2249 42.0552 74.2535 42.045 74.2809Z" fill="white"/>
<path d="M40.0098 74.3722C40.0346 74.5596 40.0492 74.7486 40.0534 74.9381C40.0534 75.3438 40.0752 75.8367 40.1189 76.4168V76.3803L41.1557 77.7252H41.1011L42.2962 77.6521H42.2471L42.8364 76.8489L43.1366 76.4412V76.4959C43.1366 75.7109 43.1038 74.9746 43.0929 74.3052L43.1584 74.3722H40.9265H40.0098C40.0803 74.3609 40.152 74.3609 40.2226 74.3722L40.8501 74.3356L43.1202 74.2383H43.1857V74.3113C43.1857 74.9868 43.2239 75.7231 43.2457 76.502V76.5081C43.1475 76.642 43.0493 76.7819 42.9456 76.9158L42.3508 77.7252H42.318L41.123 77.7921H41.1011L40.0862 76.4472C40.0862 75.8387 40.0862 75.3519 40.0862 74.9259C40.0509 74.7432 40.0254 74.5583 40.0098 74.3722Z" fill="white"/>
<path d="M43.1095 76.2952C43.1095 76.2952 43.0658 76.2952 42.9949 76.2404C42.8934 76.1897 42.7896 76.1451 42.6839 76.1065C42.3335 75.9701 41.9633 75.9082 41.5925 75.9239C41.2176 75.9331 40.8475 76.0197 40.5011 76.1795L40.2009 76.3378L40.0918 76.3986C40.1199 76.3658 40.1532 76.3389 40.19 76.3195C40.2868 76.2539 40.387 76.195 40.4902 76.143C40.8343 75.9726 41.2051 75.8796 41.5815 75.8692C41.9537 75.8538 42.3249 75.9221 42.6729 76.07C42.7781 76.1119 42.8803 76.1628 42.9785 76.2221L43.1095 76.2952Z" fill="white"/>
<path d="M43.104 75.7658L42.9949 75.711L42.6839 75.5711C42.3327 75.4383 41.9631 75.3764 41.5925 75.3885C41.2182 75.4035 40.8491 75.4899 40.5011 75.6441C40.3701 75.7049 40.2719 75.7597 40.2009 75.8023L40.0918 75.8632L40.19 75.784C40.2859 75.7185 40.3862 75.6615 40.4902 75.6137C40.8338 75.441 41.2048 75.3459 41.5815 75.3337C41.9534 75.3244 42.3235 75.3925 42.6729 75.5345C42.8039 75.5954 42.9076 75.6502 42.9785 75.6928C43.0495 75.7354 43.1095 75.7597 43.104 75.7658Z" fill="white"/>
<path d="M43.0767 75.2546L42.9675 75.2059C42.8911 75.1694 42.7874 75.1147 42.6565 75.066C42.3053 74.9334 41.9357 74.8716 41.5651 74.8834C41.1902 74.8917 40.82 74.9784 40.4737 75.139C40.3428 75.1998 40.2445 75.2546 40.1736 75.2972L40.0645 75.3581L40.1627 75.279C40.2588 75.2121 40.3591 75.1531 40.4628 75.1025C40.8078 74.9352 41.1782 74.8422 41.5542 74.8286C41.926 74.8199 42.296 74.888 42.6456 75.0295C42.7506 75.0742 42.8527 75.1271 42.9511 75.1877C42.9965 75.2005 43.0392 75.2233 43.0767 75.2546Z" fill="white"/>
<path d="M16.6387 40.6049C16.6387 40.6049 16.7424 54.2359 17.3644 58.3922L32.6929 57.5829C32.6929 57.5829 31.345 44.1952 31.8635 40.6049H16.6387Z" fill="#EBEBEB"/>
<path d="M29.5554 46.3008C27.854 46.5816 26.1395 46.7523 24.4204 46.8119C22.7064 46.9882 20.9842 47.0471 19.2637 46.9884C20.9654 46.7112 22.6797 46.5405 24.3986 46.4773C26.1131 46.3083 27.8349 46.2494 29.5554 46.3008Z" fill="white"/>
<path d="M29.5558 49.1851C27.8548 49.4708 26.1402 49.6435 24.4208 49.7024C22.7082 49.8713 20.9883 49.9302 19.2695 49.8788C20.9708 49.5976 22.6854 49.4269 24.4045 49.3677C26.1169 49.1951 27.837 49.1342 29.5558 49.1851Z" fill="white"/>
<path d="M26.9525 52.0209C25.9911 52.2521 25.0111 52.3745 24.0276 52.386C23.0515 52.4968 22.0679 52.4968 21.0918 52.386C22.0514 52.155 23.0296 52.0327 24.0113 52.0209C24.9892 51.91 25.9746 51.91 26.9525 52.0209Z" fill="white"/>
<path d="M15.9121 80.6766C15.9121 80.6766 16.0158 94.3016 16.6379 98.464L31.9663 97.6546C31.9663 97.6546 30.6185 84.267 31.1369 80.6766H15.9121Z" fill="#EBEBEB"/>
<path d="M28.8293 86.3968C27.1282 86.6817 25.4136 86.8544 23.6943 86.9141C21.9816 87.083 20.2617 87.1419 18.543 87.0906C20.2424 86.809 21.9552 86.6384 23.6725 86.5794C25.3868 86.4068 27.1086 86.3458 28.8293 86.3968Z" fill="white"/>
<path d="M28.8293 89.2873C27.128 89.569 25.4134 89.7397 23.6943 89.7985C21.9816 89.9674 20.2617 90.0263 18.543 89.975C20.2443 89.6937 21.9588 89.523 23.6779 89.4638C25.3906 89.2949 27.1105 89.236 28.8293 89.2873Z" fill="white"/>
<path d="M26.2259 92.1231C25.2664 92.3537 24.2881 92.474 23.3065 92.4821C22.3295 92.603 21.3441 92.6132 20.3652 92.5125C21.3249 92.2815 22.303 92.1592 23.2847 92.1474C24.2617 92.0265 25.2474 92.0183 26.2259 92.1231Z" fill="white"/>
<path d="M57.8047 44.1891L59.3217 83.5002L103.326 84.0904L101.351 44.7063L57.8047 44.1891Z" fill="#EBEBEB"/>
<path d="M101.008 43.9091H57.293V80.719H101.008V43.9091Z" fill="#F5F5F5"/>
<path d="M101.008 80.7192C101.008 80.7192 101.008 80.4819 101.008 80.0316C101.008 79.5812 101.008 78.924 101.008 78.0721C101.008 76.3439 101.008 73.8124 100.976 70.6237C100.976 64.2037 100.937 55.021 100.91 43.9092L101.036 44.0431H57.3258L57.4785 43.8788C57.4785 57.1143 57.4785 69.65 57.4785 80.6888L57.3421 80.5366L88.8721 80.6097L97.8433 80.6523H100.228H100.845H101.057H100.255L97.8542 80.7679L88.9213 80.8105L57.2712 80.8835H57.1348V80.7374C57.1348 69.6987 57.1348 57.163 57.1348 43.9275V43.7571H57.2876H100.997H101.128V43.897C101.128 55.0392 101.079 64.2585 101.063 70.6724C101.063 73.8671 101.063 76.3682 101.03 78.0903C101.03 78.9301 101.03 79.5752 101.03 80.0255C101.019 80.5001 101.008 80.7192 101.008 80.7192Z" fill="#E0E0E0"/>
<path d="M80.2889 51.7045H62.5703V76.5751H80.2889V51.7045Z" fill="#F5F5F5"/>
<path d="M80.2871 76.5751C80.2811 76.5328 80.2811 76.4896 80.2871 76.4473V76.0944C80.2871 75.7658 80.2871 75.3154 80.2871 74.7373C80.2871 73.5203 80.2871 71.8103 80.2544 69.6318C80.2544 65.2564 80.2107 59.0616 80.1835 51.7045L80.3199 51.8566H62.6013C62.5631 51.8566 62.885 51.5402 62.7486 51.6923V58.4531C62.7486 60.662 62.7486 62.8162 62.7486 64.9035C62.7486 69.0841 62.7486 72.997 62.7486 76.5508L62.6285 76.4108L75.4578 76.4838L79.0539 76.5203H80.0088H80.3472C80.2436 76.5288 80.1397 76.5288 80.0361 76.5203H79.1084L75.5342 76.5569L62.6285 76.6299H62.503V76.4899C62.503 72.9361 62.503 69.0232 62.503 64.8426C62.503 62.7554 62.503 60.5829 62.503 58.3922V51.7166C62.3666 51.8627 62.6831 51.5037 62.6558 51.5463H80.3744H80.5109V51.6984C80.4836 59.092 80.4563 65.3234 80.4399 69.7231L80.4072 74.7921C80.4072 75.3601 80.4072 75.8043 80.4072 76.1248C80.4072 76.2587 80.4072 76.3682 80.4072 76.4595C80.3714 76.5032 80.3311 76.542 80.2871 76.5751Z" fill="#E0E0E0"/>
<path d="M97.2044 46.0146H63.2461V49.5989H97.2044V46.0146Z" fill="#F5F5F5"/>
<path d="M97.2054 49.5991C97.2054 49.5991 97.2054 49.5078 97.2054 49.3556C97.2054 49.2035 97.2054 48.9479 97.2054 48.6558C97.2054 48.0473 97.2054 47.1528 97.1672 46.0148L97.2272 46.0817C91.5029 46.1426 78.45 46.1852 63.2688 46.1852C63.569 45.8444 63.3507 46.0878 63.4216 46.0148V49.5869L63.2743 49.4165L87.3447 49.4895L94.5697 49.5382H96.5342H97.0526C97.1125 49.5332 97.1727 49.5332 97.2326 49.5382H97.0744H96.5778H94.6461L87.4539 49.593L63.2743 49.6599H63.127V49.4956C63.127 48.9236 63.127 48.3333 63.127 47.7369V45.9114L63.2797 45.741C78.4609 45.741 91.5138 45.7836 97.2381 45.8444H97.3036V45.9114C97.3036 47.0615 97.3036 47.9621 97.2708 48.595C97.2708 48.881 97.2708 49.1001 97.2708 49.2704C97.2664 49.3834 97.2442 49.4946 97.2054 49.5991Z" fill="#E0E0E0"/>
<path d="M97.2051 51.7045H82.4551V66.6926H97.2051V51.7045Z" fill="#F5F5F5"/>
<path d="M97.2045 66.6926C97.2045 66.6926 97.2045 66.5892 97.2045 66.4066V65.5912C97.2045 64.861 97.2045 63.8326 97.1717 62.5486C97.1717 59.9075 97.1335 56.1894 97.1062 51.7167L97.2317 51.8628H82.4981L82.6454 51.6985V55.7209C82.6454 57.0353 82.6454 58.3254 82.6454 59.585C82.6454 62.0982 82.6454 64.4533 82.6454 66.6805L82.509 66.5344L93.15 66.6074L96.1676 66.6501H96.9753C97.0697 66.6412 97.1646 66.6412 97.259 66.6501C97.1737 66.6588 97.0879 66.6588 97.0025 66.6501H96.2222L93.2373 66.6866L82.509 66.7596H82.378V66.6074C82.378 64.4107 82.378 62.0252 82.378 59.512C82.378 58.2523 82.378 56.9623 82.378 55.6478V51.6254C82.2416 51.7715 82.5581 51.4185 82.5308 51.4551H97.2645H97.3954V51.595C97.3682 56.1042 97.3463 59.8589 97.33 62.5486C97.33 63.8265 97.3027 64.8427 97.2972 65.5912C97.2972 65.9117 97.2972 66.1734 97.2972 66.3762C97.2794 66.4859 97.2482 66.5924 97.2045 66.6926Z" fill="#E0E0E0"/>
<path d="M97.2051 69.0415H82.4551V76.5751H97.2051V69.0415Z" fill="#F5F5F5"/>
<path d="M97.2037 76.5751C97.2037 76.5751 97.2037 76.3804 97.2037 76.0275L97.1764 74.5183C97.1764 73.1856 97.1437 71.3296 97.1164 69.0415L97.2256 69.1632L82.4919 69.2119C82.3555 69.3641 82.672 69.005 82.6393 69.0476V72.924C82.6393 74.1836 82.6393 75.4068 82.6393 76.5751L82.4919 76.4169L93.0401 76.4899L96.1178 76.5386H96.9473H97.2419C97.1548 76.5476 97.0671 76.5476 96.98 76.5386H96.1778L93.1383 76.5873L82.4919 76.6603H82.35V76.5021C82.35 75.3337 82.35 74.1106 82.35 72.8509V68.9746C82.3173 68.9746 82.6338 68.6521 82.5028 68.8042L97.2365 68.8468H97.3074V68.9685C97.3074 71.287 97.2638 73.1735 97.2528 74.5183C97.2528 75.1268 97.2528 75.6319 97.2528 76.0031C97.2531 76.1951 97.2366 76.3867 97.2037 76.5751Z" fill="#E0E0E0"/>
<path d="M79.8445 51.7471C74.3549 60.1995 68.0467 68.1226 62.5625 76.5751L79.8445 51.7471Z" fill="white"/>
<path d="M62.5703 76.5752C62.5703 76.5752 62.6085 76.4717 62.7122 76.2953L63.176 75.5407C63.5798 74.8835 64.1856 73.9524 64.9495 72.8145C66.472 70.5264 68.6493 67.435 71.094 64.0577C73.5387 60.6804 75.7378 57.6134 77.2985 55.3679L79.1484 52.7086L79.6559 51.9845C79.7759 51.8262 79.8414 51.741 79.8523 51.7471C79.8128 51.8463 79.7633 51.9402 79.705 52.0271L79.2411 52.7816C78.8373 53.4388 78.2316 54.3699 77.4677 55.5139C75.9452 57.7959 73.7679 60.8873 71.3232 64.2646C68.8785 67.642 66.6848 70.7089 65.1187 72.9544L63.2688 75.6198L62.7613 76.3379C62.7061 76.425 62.642 76.5046 62.5703 76.5752Z" fill="#E0E0E0"/>
<path d="M80.2869 76.5751C80.2214 76.6299 76.1997 71.0983 71.3103 64.2463C66.4209 57.3942 62.5028 51.7653 62.5792 51.7045C62.6556 51.6436 66.661 57.1812 71.5558 64.0394C76.4507 70.8975 80.3524 76.5082 80.2869 76.5751Z" fill="#E0E0E0"/>
<path d="M59.3216 51.7593C59.3216 52.3707 59.159 52.9684 58.8544 53.4768C58.5498 53.9851 58.1168 54.3813 57.6103 54.6153C57.1038 54.8493 56.5464 54.9105 56.0087 54.7912C55.4709 54.672 54.977 54.3775 54.5893 53.9452C54.2016 53.5129 53.9376 52.9621 53.8306 52.3624C53.7236 51.7627 53.7785 51.1412 53.9884 50.5763C54.1982 50.0114 54.5535 49.5286 55.0094 49.189C55.4652 48.8493 56.0012 48.668 56.5495 48.668C57.2842 48.6696 57.9885 48.9958 58.5081 49.5752C59.0276 50.1546 59.3201 50.9399 59.3216 51.7593Z" fill="#E0E0E0"/>
<path d="M104.663 44.2561C104.663 44.8675 104.501 45.4652 104.196 45.9736C103.892 46.482 103.459 46.8782 102.952 47.1122C102.446 47.3461 101.888 47.4074 101.35 47.2881C100.813 47.1688 100.319 46.8744 99.9311 46.442C99.5434 46.0097 99.2794 45.4589 99.1724 44.8592C99.0654 44.2596 99.1203 43.638 99.3302 43.0731C99.54 42.5083 99.8953 42.0255 100.351 41.6858C100.807 41.3461 101.343 41.1648 101.891 41.1648C102.626 41.1664 103.33 41.4926 103.85 42.072C104.369 42.6514 104.662 43.4368 104.663 44.2561Z" fill="#E0E0E0"/>
<path fill-rule="evenodd" clip-rule="evenodd" d="M225.166 241.54C220.784 221.112 218.593 206.652 218.593 198.159C218.593 189.666 219.204 181.918 220.427 174.913L235.553 191.545L260.686 169.485C244.558 148.759 231.877 134.41 222.643 126.437C218.665 123.002 215.999 120.764 212.348 118.539C211.289 117.894 209.274 117.38 207.935 116.662C206.887 116.1 206.504 115.294 205.65 114.992C203.636 114.28 201.678 111.903 199.774 107.861C195.882 124.782 192.868 135.187 190.733 139.078C188.689 142.802 186.567 144.665 184.369 144.665C178.728 144.665 173.946 132.397 170.023 107.861C170.482 105.245 170 104.121 168.576 104.489C165.869 105.189 161.688 105.194 159.03 106.659C157.119 107.713 154.475 106.535 152.837 107.861C146.948 112.626 142.99 115.341 141.185 116.157C126.778 122.671 120.349 128.062 120.349 139.588C120.349 151.114 119.316 186.147 128.942 215.219C131.126 221.817 138.385 226.959 150.718 230.647L225.166 241.54Z" fill="#0285FF"/>
<path fill-rule="evenodd" clip-rule="evenodd" d="M71.7676 301.661V283.731H166.754V301.661H71.7676Z" fill="#E0E0E0"/>
<path fill-rule="evenodd" clip-rule="evenodd" d="M80.2109 283.731V254.197H149.868V283.731H80.2109Z" fill="#EBEBEB"/>
<path fill-rule="evenodd" clip-rule="evenodd" d="M71.7676 254.197V243.65H145.646V254.197H71.7676Z" fill="#E0E0E0"/>
<path d="M79.6836 245.759V252.088" stroke="#EEEEEE"/>
<path d="M82.8496 245.759V252.088" stroke="#EEEEEE"/>
<path d="M93.9316 248.396H145.647" stroke="#EEEEEE"/>
<path d="M93.4023 254.197V283.731" stroke="#E3E3E3"/>
<path d="M98.6797 254.197V283.731" stroke="#E3E3E3"/>
<path d="M140.896 254.197V283.731" stroke="#E3E3E3"/>
<path d="M71.7676 295.86H166.754" stroke="#EEEEEE"/>
<path d="M71.7676 297.97H166.754" stroke="#EEEEEE"/>
<path fill-rule="evenodd" clip-rule="evenodd" d="M168.728 113.482L168.714 90.8688C166.087 90.9394 164.342 90.4318 163.478 89.3461C162.51 88.128 161.408 86.8476 160.662 84.9497C159.353 81.6234 158.698 77.5505 158.635 76.8295C158.403 74.1866 159.491 72.3479 161.898 71.3135C160.919 61.1064 160.991 54.1523 162.116 50.4512C163.954 44.3989 170.079 43.438 175.092 40.7584C179.973 38.1494 183.67 33.7336 190.965 34.3575C196.748 34.852 201.497 37.9637 205.017 39.9905C208.4 41.9385 212.623 46.0199 214.014 49.087C215.602 52.5897 214.069 55.3174 213.314 61.5502C213.224 62.2998 213.333 77.0404 208.149 95.3787C207.287 98.4267 204.921 101.813 201.05 105.538L199.993 117.464C200.148 121.968 199.27 125.882 197.359 129.207C195.824 131.877 193.394 135.741 190.976 139.161C188.879 142.126 185.985 148.163 183.308 148.206C182.219 148.224 182.946 147.055 182.06 146.278C178.259 142.948 174.415 134.29 172.109 129.613C170.213 125.767 169.086 120.39 168.728 113.482Z" fill="#FFBE9D"/>
<path fill-rule="evenodd" clip-rule="evenodd" d="M168.729 113.483L168.715 90.87C166.088 90.9406 164.343 90.433 163.48 89.3473C162.511 88.1291 161.409 86.8487 160.663 84.9508C159.354 81.6244 158.699 77.5514 158.635 76.8304C158.404 74.1875 159.492 72.3487 161.899 71.3143C160.92 61.107 160.993 54.1527 162.117 50.4515C164.133 43.8153 169.697 42.3115 175.494 39.7323C180.131 37.6688 184.395 33.7954 190.967 34.3575C196.751 34.8521 201.5 37.9639 205.02 39.9906C208.403 41.9387 212.626 46.0202 214.017 49.0874C215.606 52.5901 214.073 55.3179 213.318 61.5509C213.227 62.3005 213.336 77.0414 208.152 95.38C207.29 98.4281 204.924 101.815 201.053 105.54C197.067 111.078 190.691 111.635 181.924 107.211" fill="#FFBE9D"/>
<path fill-rule="evenodd" clip-rule="evenodd" d="M161.9 71.316C160.92 61.1082 160.993 54.1536 162.117 50.4522C163.941 44.4481 167.519 41.8203 172.47 39.135C177.37 36.4775 183.613 33.7281 190.969 34.3571C196.753 34.8517 201.503 37.9636 205.022 39.9904C206.715 40.9653 212.059 43.5847 214.367 47.9848C216.672 52.3773 218.408 58.6501 215.566 61.6624C212.723 64.6747 211.501 56.4858 202.35 54.0784C199.111 53.2263 193.325 53.8156 188.559 53.6474C184.988 53.5213 183.028 51.5587 180.594 50.9351C178.161 50.3116 175.782 50.1858 173.558 51.5498C171.333 52.9138 173.721 54.8039 171.655 62.7342C169.589 70.6645 167.188 76.7475 166.317 78.1139C165.447 79.4803 164.962 74.2432 164.084 72.8914C163.498 71.9903 162.77 71.4651 161.9 71.316Z" fill="#423B2D"/>
<path fill-rule="evenodd" clip-rule="evenodd" d="M181.462 107.248C180.791 107.306 186.764 112.446 193.393 113.964C195.218 114.382 197.581 113.683 200.482 111.866L201.05 105.536C198.235 108.457 195.574 110.026 193.067 110.245C189.307 110.574 182.884 107.123 181.462 107.248Z" fill="#EB996E"/>
<path fill-rule="evenodd" clip-rule="evenodd" d="M163.099 76.1206C162.985 76.1305 161.657 75.9313 161.261 76.7205C160.674 77.8874 160.793 80.6905 161.093 81.4453C161.839 83.3187 163.772 85.8708 163.952 85.855C164.018 85.8493 163.024 85.1746 162.175 84.0311C161.438 83.0387 160.844 81.6492 160.731 80.5834C160.621 79.5437 160.573 78.4714 160.761 77.654C161.182 75.821 163.381 76.0959 163.099 76.1206Z" stroke="#EB996E" stroke-width="0.5"/>
<path fill-rule="evenodd" clip-rule="evenodd" d="M196.087 73.1708C195.764 73.3199 195.6 73.6804 195.595 74.2521C195.576 76.4319 195.65 79.0158 195.618 81.2251C195.599 82.5217 195.58 83.8951 195.389 84.4329C194.947 85.6808 192.942 85.0155 191.888 85.5025C191.569 85.65 191.414 85.9253 191.421 86.3286C193.372 86.6451 194.761 86.7673 195.587 86.6951C196.414 86.6229 196.95 86.3326 197.196 85.8241L196.087 73.1708Z" fill="#EB996E"/>
<path d="M196.138 73.7549C196.759 80.8346 197.111 84.8576 197.196 85.8241C197.28 86.7906 195.355 86.9587 191.421 86.3286" stroke="#263238" stroke-width="0.9" stroke-linecap="round"/>
<path d="M183.688 92.3595C185.91 93.7943 187.808 94.7187 189.382 95.1327C190.956 95.5467 192.877 95.7135 195.145 95.6332" stroke="#263238" stroke-width="0.9" stroke-linecap="round"/>
<path d="M189.843 68.3773C187.914 67.3504 186.412 66.7502 185.335 66.5764C184.258 66.4027 182.819 66.5284 181.017 66.9536" stroke="#263238" stroke-width="0.9" stroke-linecap="round"/>
<path d="M209.076 70.5848C208.37 69.9738 207.371 69.4213 206.079 68.9272C204.787 68.4332 202.763 68.4062 200.006 68.8463" stroke="#263238" stroke-width="0.9" stroke-linecap="round"/>
<path d="M185.181 74.6148C186.226 74.5236 186.999 73.6027 186.907 72.558C186.816 71.5133 185.894 70.7404 184.849 70.8317C183.804 70.923 183.031 71.8438 183.123 72.8885C183.214 73.9332 184.136 74.7061 185.181 74.6148Z" fill="#263238"/>
<path d="M204.169 76.1184C205.214 76.0271 205.987 75.1062 205.896 74.0615C205.804 73.0169 204.883 72.244 203.838 72.3352C202.793 72.4265 202.02 73.3474 202.111 74.3921C202.203 75.4367 203.124 76.2096 204.169 76.1184Z" fill="#263238"/>
<path d="M134.78 116.985C134.437 119.989 153.752 130.985 157.404 132.828C162.459 135.38 165.9 138.788 168.347 140.231C176.22 144.873 180.931 147.398 182.303 147.863C186.414 149.256 178.095 137.643 172.643 130.651C167.191 123.658 172.52 106.371 168.345 104.594C167.77 104.349 156.768 104.145 154.176 105.533C150.859 107.31 147.716 109.214 146.832 110.252C145.243 112.117 143.316 111.514 141.187 113.618C139.13 115.65 135.122 113.981 134.78 116.985Z" fill="#2294D9"/>
<path d="M134.78 116.985C134.437 119.989 153.752 130.985 157.404 132.828C162.459 135.38 165.9 138.788 168.347 140.231C176.22 144.873 180.931 147.398 182.303 147.863C186.414 149.256 178.095 137.643 172.643 130.651C167.191 123.658 172.52 106.371 168.345 104.594C167.77 104.349 156.768 104.145 154.176 105.533C150.859 107.31 147.716 109.214 146.832 110.252C145.243 112.117 143.316 111.514 141.187 113.618C139.13 115.65 135.122 113.981 134.78 116.985Z" fill="#066FD0"/>
<path fill-rule="evenodd" clip-rule="evenodd" d="M183.689 148.153C184.935 148.158 193.373 145.544 198.201 141.783C208.131 134.046 217.049 121.732 216.599 119.32C215.929 115.735 213.359 116.315 212.414 115.759C210.755 114.784 208.662 114.776 207.611 113.95C205.66 112.416 202.142 108.832 200.872 110.359C199.602 111.887 200.567 118.952 198.831 122.903C197.27 126.459 195.369 132.769 191.576 137.554C186.223 144.308 181.46 148.145 183.689 148.153Z" fill="#066FD0"/>
<path d="M183.164 147.977C185.173 150.983 186.252 162.92 186.402 183.787" stroke="#17608D" stroke-width="0.6" stroke-linecap="round"/>
<path d="M287.07 312.018C290.461 315.362 295.402 317.334 301.894 317.932C311.632 318.829 327.163 318.829 335.897 317.259C344.631 315.689 348.744 308.732 335.897 304.79C332.452 303.733 327.78 302.902 321.474 301.168C317.236 300.001 309.229 297.705 297.452 294.278L287.07 312.018Z" fill="#2294D9"/>
<path d="M287.07 312.018C290.461 315.362 295.402 317.334 301.894 317.932C311.632 318.829 327.163 318.829 335.897 317.259C344.631 315.689 348.744 308.732 335.897 304.79C332.452 303.733 327.78 302.902 321.474 301.168C317.236 300.001 309.229 297.705 297.452 294.278L287.07 312.018Z" fill="#066FD0"/>
<path d="M287.07 312.018C290.461 315.362 295.402 317.334 301.894 317.932C311.632 318.829 327.163 318.829 335.897 317.259C344.631 315.689 348.744 308.732 335.897 304.79C332.452 303.733 327.78 302.902 321.474 301.168C317.236 300.001 309.229 297.705 297.452 294.278L287.07 312.018Z" fill="#0285FF"/>
<path d="M140.74 252.088C139.766 245.249 139.28 240.104 139.28 236.653C139.28 233.201 138.94 229.557 138.26 225.719L149.869 231.202L140.74 252.088Z" fill="#2294D9"/>
<path d="M140.74 252.088C139.766 245.249 139.28 240.104 139.28 236.653C139.28 233.201 138.94 229.557 138.26 225.719L149.869 231.202L140.74 252.088Z" fill="#066FD0"/>
<path fill-rule="evenodd" clip-rule="evenodd" d="M42.3245 315.374H211.306C214.248 311.768 214.984 308.582 213.513 305.814C212.041 303.046 208.359 301.662 202.467 301.662H52.7411C48.7799 301.662 45.9571 303.046 44.2727 305.814C42.5884 308.582 41.939 311.768 42.3245 315.374Z" fill="#263237"/>
<path d="M228.094 294.278L255.41 303.563C240.297 309.506 229.453 313.213 222.877 314.685C218.473 315.671 203.426 319.034 204.844 312.493C205.725 308.429 211.943 306.51 222.877 298.78C224.026 297.967 225.765 296.467 228.094 294.278Z" fill="#2294D9"/>
<path d="M228.094 294.278L255.41 303.563C240.297 309.506 229.453 313.213 222.877 314.685C218.473 315.671 203.426 319.034 204.844 312.493C205.725 308.429 211.943 306.51 222.877 298.78C224.026 297.967 225.765 296.467 228.094 294.278Z" fill="#066FD0"/>
<path d="M228.094 294.278L255.41 303.563C240.297 309.506 229.453 313.213 222.877 314.685C218.473 315.671 203.426 319.034 204.844 312.493C205.725 308.429 211.943 306.51 222.877 298.78C224.026 297.967 225.765 296.467 228.094 294.278Z" fill="#0285FF"/>
<path d="M153.035 159.269C155.707 165.418 157.71 170.042 159.043 173.141C162.866 182.024 164.712 194.467 168.191 198.583C173.492 204.854 183.216 210.734 197.362 216.226C188.271 213.24 181.935 211.012 178.356 209.542C168.88 205.651 162.438 201.859 160.143 199.597C156.547 196.053 154.178 182.611 153.035 159.269Z" fill="#2294D9"/>
<path d="M153.035 159.269C155.707 165.418 157.71 170.042 159.043 173.141C162.866 182.024 164.712 194.467 168.191 198.583C173.492 204.854 183.216 210.734 197.362 216.226C188.271 213.24 181.935 211.012 178.356 209.542C168.88 205.651 162.438 201.859 160.143 199.597C156.547 196.053 154.178 182.611 153.035 159.269Z" fill="#066FD0"/>
<path d="M153.035 149.776C153.773 176.771 155.945 193.088 159.551 198.725C163.156 204.362 183.5 212.656 220.581 223.609" stroke="#17608D" stroke-width="0.6" stroke-linecap="round"/>
<path d="M220.582 218.336C219.174 206.425 218.471 197.491 218.471 191.536C218.471 185.58 219.174 179.839 220.582 174.312V150.831" stroke="#17608D" stroke-width="0.6" stroke-linecap="round"/>
<path d="M145.646 210.952C147.59 207.073 149.373 204.384 150.996 202.887C152.619 201.389 155.409 199.859 159.367 198.295" stroke="#17608D" stroke-width="0.6" stroke-linecap="round"/>
<path fill-rule="evenodd" clip-rule="evenodd" d="M286.562 314.28L299.738 290.993C240.71 251.183 201.131 227.23 180.998 219.135C150.8 206.992 134.698 257.675 137.524 278.469C138.09 282.636 138.003 303.404 152.241 312.031C159.796 316.609 170.368 313.076 180.081 312.031C189.684 310.998 199.039 314.742 202.183 312.031C209.908 305.371 214.834 298.359 216.96 290.993L286.562 314.28Z" fill="#233239"/>
<path d="M174.143 274.238L217.414 291.114" stroke="#3B4E56" stroke-linecap="round"/>
<path fill-rule="evenodd" clip-rule="evenodd" d="M293.716 287.95C340.104 258.041 356.334 235.437 342.406 220.138C328.477 204.839 286.462 211.129 216.359 239.009" fill="#263237"/>
<path d="M299.737 291.114C240.536 251.026 201.723 227.542 181.531 219.39" stroke="#3B4E56" stroke-linecap="round"/>
<path d="M258.576 262.635L302.903 225.719" stroke="#3B4E56" stroke-linecap="round"/>
<path d="M302.902 225.719C305.216 225.052 306.975 224.598 308.179 224.357C309.384 224.116 311.143 223.867 313.456 223.609" stroke="#3B4E56" stroke-linecap="round"/>
<path d="M302.902 225.719C303.224 224.533 303.616 223.478 304.078 222.554C304.54 221.631 305.204 220.576 306.069 219.39" stroke="#3B4E56" stroke-linecap="round"/>
<path fill-rule="evenodd" clip-rule="evenodd" d="M235.286 170.123L317.678 168.762L291.507 235.206L214.235 236.266L202.639 229.648H216.89L235.286 170.123Z" fill="#455A64"/>
<path d="M267.547 206.733C270.753 206.733 273.352 204.136 273.352 200.932C273.352 197.728 270.753 195.131 267.547 195.131C264.341 195.131 261.742 197.728 261.742 200.932C261.742 204.136 264.341 206.733 267.547 206.733Z" fill="#BDE0FE"/>
<path d="M150.925 230.993C141.239 228.046 134.829 224.332 131.694 219.849C128.56 215.367 125.823 205.721 123.484 190.912" stroke="#17608D" stroke-width="0.6" stroke-linecap="round"/>
</svg>
